<?xml version="1.0" standalone="no"?>
<!DOCTYPE svg PUBLIC "-//W3C//DTD SVG 20010904//EN"
 "http://www.w3.org/TR/2001/REC-SVG-20010904/DTD/svg10.dtd">
<svg version="1.0" xmlns="http://www.w3.org/2000/svg"
 width="82.000000pt" height="82.000000pt" viewBox="0 0 82.000000 82.000000"
 preserveAspectRatio="xMidYMid meet">
<metadata>
Created by potrace 1.11, written by Peter Selinger 2001-2013
</metadata>
<g transform="translate(0.000000,82.000000) scale(0.100000,-0.100000)"
fill="#000000" stroke="none">
<path d="M708 735 c-47 -32 -97 -106 -180 -262 l-64 -121 -62 123 c-56 110
-66 124 -99 138 -83 33 -225 -13 -252 -82 -23 -58 -21 -82 9 -112 34 -35 71
-37 100 -7 23 25 25 38 7 62 -11 16 -17 16 -34 6 -51 -32 -74 32 -27 75 15 14
42 28 62 31 58 11 64 -8 57 -156 -11 -233 -21 -288 -62 -319 -36 -29 -78 -27
-108 5 -15 16 -31 24 -40 20 -33 -12 -4 -65 38 -68 67 -4 84 -4 107 4 70 25
97 92 106 267 3 64 7 117 8 118 1 2 31 -56 67 -127 53 -107 68 -130 86 -130
14 0 24 8 29 23 12 38 105 230 109 226 4 -5 12 -64 20 -161 3 -37 7 -75 9 -85
2 -10 7 -39 10 -65 11 -75 71 -99 150 -61 36 17 41 35 7 26 -10 -3 -21 -1 -24
4 -9 15 -21 102 -32 228 -4 39 -8 81 -10 95 -2 14 -7 68 -10 120 -5 84 -3 99
14 127 30 48 56 58 82 32 17 -17 23 -19 30 -8 36 57 -35 80 -103 34z"/>
</g>
</svg>
